# xmcd CD database file
#
# Track frame offsets:
#	150
#	11147
#	22400
#	36492
#	50690
#	62564
#	73720
#	86354
#	99333
#	113704
#	127970
#	141035
#	155556
#
# Disc length: 2262 seconds
#
# Revision: 0
# Processed by: cddbd v1.5.2PL0 Copyright (c) Steve Scherf et al.
# Submitted via: CDex 1.70beta2
#
DISCID=b308d40d
DTITLE=Janie Brannon - Honky-Tonk Memories
DYEAR=2009
DGENRE=Country
TTITLE0=Honky-Tonk Memories
TTITLE1=Tennessee Waltz
TTITLE2=I've Got A Yearning
TTITLE3=Stranger In Our Home
TTITLE4=Let Your Lovin' Do The Talkin'
TTITLE5=Mockingbird Hill
TTITLE6=There's Still A Lot Of Love In San Antone
TTITLE7=Satin Sheets
TTITLE8=Workin' My Way Through A Heartache
TTITLE9=I Am Love
TTITLE10=Hooked On A Feelin'
TTITLE11=Let's Be Friends, Not Lovers
TTITLE12=I Don't Believe You're Ever Comin' Home
EXTD=YEAR: 2009
EXTT0=
EXTT1=
EXTT2=
EXTT3=
EXTT4=
EXTT5=
EXTT6=
EXTT7=
EXTT8=
EXTT9=
EXTT10=
EXTT11=
EXTT12=
PLAYORDER=
